<?xml version="1.0" standalone="no"?>
<!DOCTYPE svg PUBLIC "-//W3C//DTD SVG 20010904//EN"
 "http://www.w3.org/TR/2001/REC-SVG-20010904/DTD/svg10.dtd">
<svg version="1.0" xmlns="http://www.w3.org/2000/svg"
 width="558.000000pt" height="558.000000pt" viewBox="0 0 558.000000 558.000000"
 preserveAspectRatio="xMidYMid meet">
<metadata>
Created by potrace 1.11, written by Peter Selinger 2001-2013
</metadata>
<g transform="translate(0.000000,558.000000) scale(0.100000,-0.100000)"
fill="#000000" stroke="none">
<path d="M917 5263 c-2 -4 -57 -226 -122 -493 l-117 -485 -37 -29 c-81 -66
-267 -256 -331 -337 -201 -260 -290 -524 -260 -778 27 -219 124 -408 304 -586
355 -350 949 -543 1558 -504 83 5 153 7 155 5 6 -6 -13 -222 -43 -494 -53
-477 -123 -774 -200 -841 -29 -25 -30 -31 -4 -64 42 -53 265 -120 493 -148
134 -16 413 -7 487 16 110 35 185 88 236 169 l27 43 100 11 c174 21 329 84
518 211 295 199 464 415 536 686 26 98 27 109 33 500 7 431 7 431 65 530 39
68 185 182 277 217 63 24 150 23 222 -2 148 -51 425 -292 487 -424 50 -105 38
-193 -37 -276 -70 -77 -170 -136 -358 -210 -60 -24 -120 -53 -135 -66 -25 -22
-25 -23 -8 -41 42 -43 302 -22 481 38 152 51 217 104 273 226 36 76 44 215 18
313 -49 190 -189 361 -413 507 -167 110 -316 163 -453 163 -147 0 -249 -43
-368 -155 -101 -96 -165 -194 -233 -358 -21 -50 -22 -66 -23 -362 0 -283 -2
-319 -23 -412 -45 -207 -129 -397 -228 -517 -132 -160 -373 -302 -620 -365
l-72 -19 -7 52 c-9 70 -66 239 -111 328 -53 106 -162 284 -313 512 -72 109
-131 202 -131 206 0 10 53 20 109 20 25 0 108 9 184 20 443 65 812 239 1063
501 222 233 326 497 311 793 -14 293 -149 562 -407 816 l-87 85 -94 487 c-52
269 -96 488 -99 488 -3 0 -86 -146 -184 -325 -98 -179 -182 -325 -186 -325 -4
0 -26 6 -48 14 -22 8 -87 26 -144 40 -319 78 -703 78 -1428 1 -124 -13 -228
-21 -231 -17 -4 4 -90 150 -192 325 -102 175 -187 314 -190 310z m73 -1198 c0
-2 -19 -14 -41 -26 -96 -48 -187 -181 -230 -334 -33 -114 -33 -306 0 -420 30
-107 83 -205 145 -268 71 -71 133 -100 222 -105 96 -5 171 27 247 107 96 101
149 222 168 387 18 156 -17 341 -88 463 -32 55 -128 158 -155 167 -11 3 -17 8
-15 11 10 10 148 -69 218 -125 119 -95 258 -255 374 -429 l47 -72 -80 -103
c-140 -178 -307 -330 -440 -397 -50 -26 -194 -45 -265 -36 -74 9 -222 61 -317
111 -159 84 -305 230 -393 392 l-38 71 105 143 c202 277 307 375 474 444 64
26 62 26 62 19z m2009 -33 c-93 -60 -170 -174 -211 -317 -33 -115 -33 -325 0
-440 44 -152 130 -273 233 -330 74 -40 171 -46 253 -15 81 31 169 119 218 220
59 120 72 185 72 345 0 160 -13 225 -71 343 -34 70 -108 158 -163 195 -24 16
-24 17 14 2 102 -40 236 -145 356 -281 80 -90 240 -310 240 -329 0 -18 -122
-174 -209 -267 -82 -87 -197 -178 -298 -235 -63 -35 -75 -38 -164 -41 -75 -3
-112 0 -173 17 -203 56 -338 131 -467 260 -70 70 -189 234 -204 281 -5 15 19
55 92 156 181 252 290 361 428 429 85 42 116 46 54 7z"/>
</g>
</svg>
